<svg xmlns="http://www.w3.org/2000/svg" xmlns:xlink="http://www.w3.org/1999/xlink" xmlns:svgjs="http://svgjs.com/svgjs" version="1.1" width="512" height="512" x="0" y="0" viewBox="0 0 16.933333 16.933334" style="enable-background:new 0 0 512 512" xml:space="preserve" class=""><g><g xmlns="http://www.w3.org/2000/svg" id="layer1" transform="translate(0 -280.067)"><path id="path16604-0" d="m3.4395838 280.59478c-.4351574 0-.7927153.36014-.7927153.7953v13.22865c0 .43516.3575579.79479.7927153.79479h4.2896606c.4295748.68043 1.1441165 1.02732 1.1441165 1.02732.038039.0196.080214.0292.1229889.0289h3.9403282c.129673 0 .171974-.0291.235646-.0977.08061-.0868 1.115177-1.1612 1.115177-2.54661v-2.24999c.000015-.50847-.41759-.92553-.926042-.92553-.04533 0-.08943.005-.132808.0114v-9.27127c0-.43516-.357555-.7953-.792718-.7953zm0 .52968h8.9963492c.151157 0 .263552.11448.263552.26562v9.01392c-.138512-.14424-.32284-.24284-.529167-.27285v-7.15305c.000529-.14612-.11743-.26504-.263551-.26562h-7.9375006c-.1471295-.00079-.2666973.11849-.2661337.26562v8.99376c-.0005292.14714.1190042.26647.2661337.26562h2.5641856c.3170899.88126.6420671 1.76768.9554978 2.64687h-4.049366c-.1511431 0-.2656177-.11447-.2656177-.26562v-13.22865c0-.15114.1144746-.26562.2656177-.26562zm3.7031322.52917c-.3607858-.008-.3607858.53727 0 .52917h1.5880186c.3607859.008.3607859-.53727 0-.52917zm-2.3807314 6.08593v.26562c0 .58174.4878811 1.17031 1.0583333 1.05627h2.6468653v2.75022c-.1085956-.18116-.2204747-.35969-.3260778-.54261-.2578444-.44659-.6183339-.71871-1.1058764-.58807-.4526703.12123-.7498768.56889-.6748938 1.02732h-2.1275173v-8.46666h7.4078151v6.96805c-.01558.008-.03085.0133-.04599.0217-.118975-.37415-.46776-.64026-.879533-.64026-.142161 0-.275577.0354-.396359.0935v-.66042c.454226-.11824.792715-.52884.792715-1.01906v-.26562c-.000529-.14531-.118237-.26296-.263549-.26354h-.289904c-.03139-.2278-.105201-.56716-.305924-.92398-.2656207-.47222-.7695937-.9458-1.6004198-1.12138.049228-.10318.079065-.21702.079065-.33796 0-.43524-.3574759-.79272-.7927181-.79272s-.7953005.35748-.7953005.79272c0 .12108.030028.23521.079584.33848-.8298656.17586-1.3334127.64895-1.5988691 1.12086-.2007156.35682-.274529.69618-.3059245.92398h-.3035984c-.1490398.0136-.2520553.12752-.251923.26354zm3.1760319-2.91041c.1492594 0 .2635514.11429.2635514.26355s-.114292.26561-.2635514.26561-.2661338-.11635-.2661338-.26561.1168744-.26355.2661338-.26355zm0 1.05885c1.1122237 0 1.592416.45997 1.8531179.92346.1386707.24653.2024062.48757.2335766.66456h-.6320021c-.5084551.00026-.9255257.41707-.9255257.92552v.13074h-2.6468653c-.2977409 0-.5291666-.22937-.5291666-.5271h1.3244671c.3449452-.008.3449452-.52142 0-.52916h-.7648125c.031176-.17699.094922-.41804.2335768-.66456.2607125-.46347.7414101-.92345 1.8536338-.92346zm0 2.11718c.3449452-.008.3449452-.52142 0-.52916h-.2787941c-.3571452.0243-.3325733.53783.012647.52916zm5.4234295 3.17397c.224448 0 .396359.17191.396359.39636v2.24999c0 1.05077-.740207 1.92487-.91209 2.11512h-3.7713448c-.5358395-.31724-.887603-.68467-1.0934753-1.25367l-1.0919222-3.01791c-.062601-.2034.07902-.42233.2831862-.47645.2580719-.0684.4545144.24175.5157311.34778.2801144.48517.5443352.90921.8164883 1.36323.1377394.2322.4919583.13304.4919583-.13695v-4.36511c0-.22443.1719263-.39635.396367-.39636.2244752 0 .3968803.1719.3968803.39636.0002646 1.36679-.0005292 2.20383-.0005292 3.57032 0 .35312.5296823.35312.5296823 0v-1.45521c0-.22443.171911-.39635.396359-.39635.224446 0 .396354.17191.396357.39635v1.45521c-.008.3607.537173.3607.529167 0v-.91467c.000074-.004.000074-.007 0-.0109-.000003-.22444.174495-.39636.398944-.39636.224448 0 .396356.17191.396356.39636v.52917.39636c-.008.36069.537173.36069.529167 0v-.39093c0-.22988.17191-.40179.396359-.40179zm-3.130029-3.17397h.352951c0 .18804-.106193.36792-.265617.45734.01241-.16507-.02721-.33652-.08733-.45734z" font-variant-ligatures="normal" font-variant-position="normal" font-variant-caps="normal" font-variant-numeric="normal" font-variant-alternates="normal" font-feature-settings="normal" text-indent="0" text-align="start" text-decoration-line="none" text-decoration-style="solid" text-decoration-color="rgb(0,0,0)" text-transform="none" text-orientation="mixed" white-space="normal" shape-padding="0" isolation="auto" mix-blend-mode="normal" solid-color="rgb(0,0,0)" solid-opacity="1" vector-effect="none" fill="#ffffff"/></g></g></svg>