<svg xmlns="http://www.w3.org/2000/svg" xmlns:xlink="http://www.w3.org/1999/xlink" xmlns:svgjs="http://svgjs.com/svgjs" version="1.1" width="512" height="512" x="0" y="0" viewBox="0 0 499.624 499.624" style="enable-background:new 0 0 512 512" xml:space="preserve" class=""><g><g xmlns="http://www.w3.org/2000/svg"><g><path d="m188.902 326.515c-5.248-1.698-10.337-3.965-15.126-6.739l7.518-12.98c3.873 2.243 7.986 4.076 12.226 5.448zm-28.508-16.557c-4.064-3.728-7.745-7.921-10.939-12.462l12.268-8.631c2.576 3.661 5.541 7.039 8.812 10.04zm-18.982-26.917c-2.158-5.054-3.805-10.358-4.894-15.764l14.704-2.963c.888 4.404 2.228 8.723 3.984 12.837z" fill="#ffffff"/></g><g><path d="m326.494 309.04 13.436 6.671c2.371-4.776 4.502-9.753 6.332-14.792l-14.1-5.12c-1.639 4.511-3.545 8.966-5.668 13.241z" fill="#ffffff"/><path d="m438.221 101.858c0-54.062-43.982-98.044-98.045-98.044-51.539 0-93.917 39.973-97.76 90.544h-80.902l-17.308-73.674-79.005-20.684-3.799 14.511 70.267 18.396 14.436 61.451h-59.558l-14.838 141.559c-2.766 26.385 1.699 52.967 12.911 76.872 11.305 24.103 28.982 44.408 51.121 58.719 20.962 13.552 44.919 21.273 69.697 22.57v39.353l-34.247 17.905 6.95 13.293 34.777-18.183 58.307 30.469c3.33 1.741 5.921 4.462 7.495 7.708h-131.567c1.574-3.247 4.164-5.969 7.494-7.71l10.135-5.299-6.95-13.293-10.135 5.299c-10.646 5.566-17.259 16.487-17.259 28.503v7.5h165v-7.5c0-12.016-6.615-22.938-17.265-28.502l-57.734-30.17v-39.366c30.835-1.653 60.53-13.388 84.33-33.478 10.543-8.899 19.704-19.313 27.229-30.952l-12.598-8.144c-6.719 10.393-14.896 19.69-24.307 27.633-23.032 19.443-52.224 30.151-82.197 30.151-24.52 0-48.383-7.049-69.011-20.384-19.776-12.785-35.574-30.936-45.684-52.492-10.052-21.432-14.054-45.271-11.573-68.939l13.429-128.123h49.573l14.081 59.937h-52.503l-7.673 69.957c-2.159 20.589 1.319 41.318 10.057 59.948 8.757 18.669 22.423 34.38 39.522 45.434 17.872 11.554 38.544 17.661 59.782 17.661 25.964 0 51.261-9.284 71.231-26.142 27.66-23.348 41.965-59.321 38.264-96.247l-7.267-70.612h-86.947v15h73.412l4.63 45h-186.502l4.936-45h88.286v-15h-33.819l-14.081-59.937h77.094 84.259l9.088 90.672 3.829 38.202c1.496 14.919.443 29.834-3.127 44.333l14.564 3.587c3.981-16.164 5.154-32.79 3.488-49.416l-3.746-37.377c22.655-2.359 43.632-12.453 59.75-28.915 18.045-18.429 27.983-42.786 27.983-68.584zm-163.77 222.833c-17.267 14.576-39.128 22.604-61.555 22.604-18.342 0-36.198-5.276-51.639-15.257-14.736-9.527-26.523-23.084-34.085-39.207-7.09-15.117-10.184-31.836-9.021-48.536h189.561c2.21 30.967-10.097 60.844-33.261 80.396zm83.832-215.333h64.592c-1.504 16.85-8.065 32.673-18.927 45.665zm45.646-60.646c10.528 12.608 17.383 28.372 18.937 45.646h-64.583zm-56.252 35.039v-64.583c17.273 1.555 33.038 8.409 45.646 18.937zm-15 0-45.65-45.65c12.608-10.528 28.375-17.387 45.65-18.941zm-56.257-35.042 45.649 45.649h-64.602c1.554-17.276 8.424-33.04 18.953-45.649zm65.536 65.535 51.391 51.391c-12.63 10.561-27.968 17.081-44.355 18.804z" fill="#ffffff"/></g></g></g></svg>