<svg xmlns="http://www.w3.org/2000/svg" version="1.1" xmlns:xlink="http://www.w3.org/1999/xlink" xmlns:svgjs="http://svgjs.com/svgjs" width="512" height="512" x="0" y="0" viewBox="0 0 512 512" style="enable-background:new 0 0 512 512" xml:space="preserve" class=""><g><path xmlns="http://www.w3.org/2000/svg" d="m497 422h-7.578125c1.664063-4.695312 2.578125-9.742188 2.578125-15 0-11.515625-4.355469-22.03125-11.496094-30 7.140625-7.96875 11.496094-18.484375 11.496094-30 0-5.257812-.914062-10.304688-2.578125-15h7.578125c8.285156 0 15-6.714844 15-15 0-52.382812-42.617188-95-95-95h-110.304688l2.421876-40h5.882812c8.285156 0 15-6.714844 15-15v-60c0-8.285156-6.714844-15-15-15h-122.308594l40.433594-62h51.875c8.285156 0 15-6.714844 15-15s-6.714844-15-15-15h-60c-5.070312 0-9.796875 2.558594-12.5625 6.804688l-55.5625 85.195312h-141.875c-8.285156 0-15 6.714844-15 15v60c0 8.285156 6.714844 15 15 15h5.882812l19.144532 315.90625c.480468 7.917969 7.039062 14.09375 14.972656 14.09375h382c41.355469 0 75-33.644531 75-75 0-8.285156-6.714844-15-15-15zm-285-15c0-8.269531 6.730469-15 15-15h220c8.269531 0 15 6.730469 15 15s-6.730469 15-15 15h-220c-8.269531 0-15-6.730469-15-15zm250-60c0 8.269531-6.730469 15-15 15h-220c-8.269531 0-15-6.730469-15-15s6.730469-15 15-15h220c8.269531 0 15 6.730469 15 15zm18.253906-45h-286.507812c6.789062-28.632812 32.574218-50 63.253906-50h160c30.679688 0 56.464844 21.363281 63.253906 50zm-450.253906-180h134.929688c.019531 0 .039062.003906.054687.003906.011719 0 .023437-.003906.035156-.003906h134.980469v30h-4.980469c-.007812 0-.011719 0-.019531 0h-260c-.007812 0-.011719 0-.019531 0h-4.980469zm26.582031 153.132812c1.136719-.085937 2.273438-.132812 3.417969-.132812 24.8125 0 45 20.1875 45 45 0 24.132812-19.097656 43.886719-42.976562 44.949219zm7.257813 119.769532c39.578125-2.003906 71.160156-34.835938 71.160156-74.902344 0-41.355469-33.644531-75-75-75-1.75 0-3.492188.074219-5.234375.195312l-3.828125-63.195312h228.125l-2.421875 40h-19.640625c-52.382812 0-95 42.617188-95 95 0 8.285156 6.714844 15 15 15h7.578125c-1.664063 4.695312-2.578125 9.742188-2.578125 15 0 11.515625 4.355469 22.03125 11.496094 30-7.140625 7.96875-11.496094 18.484375-11.496094 30 0 5.257812.914062 10.304688 2.578125 15h-7.578125c-8.285156 0-15 6.714844-15 15 0 16.871094 5.601562 32.457031 15.039062 45h-107.921874zm373.160156 87.097656h-200c-19.558594 0-36.238281-12.539062-42.429688-30h284.859376c-6.191407 17.460938-22.871094 30-42.429688 30zm0 0" fill="#fb7223"></path></g></svg>