<svg xmlns="http://www.w3.org/2000/svg" version="1.1" xmlns:xlink="http://www.w3.org/1999/xlink" xmlns:svgjs="http://svgjs.com/svgjs" width="512" height="512" x="0" y="0" viewBox="0 0 64 64" style="enable-background:new 0 0 512 512" xml:space="preserve" class=""><g><g xmlns="http://www.w3.org/2000/svg" id="_14-eco_food" data-name="14-eco food"><path d="M27.11,19.51a33,33,0,0,0,5-.68A8.47,8.47,0,0,0,35.59,12c0-4.54-4.46-9-9-9C24.15,3,18.08.88,15.94.07a1,1,0,0,0-.86.07,1,1,0,0,0-.48.72c-.06.42-1.43,10.46,4.14,15.67A11.79,11.79,0,0,0,27.11,19.51ZM16.47,2.39C18.85,3.25,24,5,26.59,5a7.59,7.59,0,0,1,7,7,6.46,6.46,0,0,1-1.91,4.61L23.33,7.33a1,1,0,0,0-1.49,1.34l7.79,8.65c-4.12.55-7.32-.19-9.52-2.25C16.36,11.57,16.3,5.1,16.47,2.39Z" fill="#c00a27"></path><path d="M34.67,24.83c.63,2.69,2.52,4.36,4.92,4.36,4.33,0,9-2.19,9-7a50,50,0,0,1,1-7.8,1,1,0,0,0-.67-1.15c-.34-.11-3.57-1-9.76,2.06A8.55,8.55,0,0,0,34.67,24.83ZM40,17.09A16.25,16.25,0,0,1,47.16,15h.24a46.58,46.58,0,0,0-.81,7.15c0,3.44-3.63,5-7,5a2.65,2.65,0,0,1-.71-.09l4.52-6.33a1,1,0,0,0-.23-1.39,1,1,0,0,0-1.4.23l-4.49,6.3a5.06,5.06,0,0,1-.67-1.54A6.56,6.56,0,0,1,40,17.09Z" fill="#c00a27"></path><path d="M54,40v0c0-2.32-3.4-3.85-10.85-4.94a1,1,0,1,0-.3,2c9,1.33,9.15,3,9.15,3h0c0,1.36-7.08,4-20,4s-20-2.64-20-4h0c0-1.36,7.06-4,20-4a1,1,0,0,0,0-2c-10.56,0-21.91,1.87-22,6h0v.06C10,41.35,10.77,64,32,64S54,41.35,54,40.06V40h0ZM32,46c7.75,0,15.93-1,19.77-3.16-.1.7-.23,1.51-.41,2.37-.82.42-6,2.79-19.36,2.79s-18.52-2.37-19.36-2.79c-.18-.86-.31-1.67-.41-2.37C16.07,45,24.25,46,32,46Zm0,16c-8.26,0-14.13-3.65-17.44-10.86a27.56,27.56,0,0,1-1.31-3.51C15.85,48.56,21.55,50,32,50s16.15-1.44,18.75-2.37a27.56,27.56,0,0,1-1.31,3.51C46.13,58.35,40.26,62,32,62Z" fill="#c00a27"></path><path d="M58,22c-3.31,0-6,3.59-6,8a8.78,8.78,0,0,0,3,6.94V61a3,3,0,0,0,6,0V36.94A8.78,8.78,0,0,0,64,30C64,25.59,61.31,22,58,22Zm1.48,13.56a1,1,0,0,0-.48.85V61a1,1,0,0,1-2,0V36.41a1,1,0,0,0-.48-.85C55,34.62,54,32.44,54,30c0-3.25,1.83-6,4-6s4,2.75,4,6C62,32.44,61,34.62,59.48,35.56Z" fill="#c00a27"></path><path d="M12,33V23a1,1,0,0,0-2,0v6H7V23a1,1,0,0,0-2,0v6H2V23a1,1,0,0,0-2,0V33a4,4,0,0,0,3,3.87V61a3,3,0,0,0,6,0V36.87A4,4,0,0,0,12,33Zm-2,0a2,2,0,0,1-2,2,1,1,0,0,0-1,1V61a1,1,0,0,1-2,0V36a1,1,0,0,0-1-1,2,2,0,0,1-2-2V31h8Z" fill="#c00a27"></path><path d="M28.76,24l-4,1A1,1,0,0,0,24,26.2l1,5a1,1,0,0,0,.58.71A.9.9,0,0,0,26,32a1,1,0,0,0,.51-.14l5-3a1,1,0,0,0,.32-1.41l-2-3A1,1,0,0,0,28.76,24ZM26.7,29.41l-.53-2.67,2.39-.6,1,1.54Z" fill="#c00a27"></path><path d="M26,40a3,3,0,1,0,3-3A3,3,0,0,0,26,40Zm4,0a1,1,0,1,1-1-1A1,1,0,0,1,30,40Z" fill="#c00a27"></path><path d="M39,32H35a1,1,0,0,0-1,1v6a1,1,0,0,0,1,1h.16l6-1a1,1,0,0,0,.71-.5,1,1,0,0,0,.06-.86l-2-5A1,1,0,0,0,39,32Zm-3,5.82V34h2.32l1.29,3.22Z" fill="#c00a27"></path><path d="M25.37,57.07C21,55.3,20,51.9,20,51.75a1,1,0,0,0-1.94.49,10.7,10.7,0,0,0,6.6,6.69A1,1,0,0,0,25,59a1,1,0,0,0,.37-1.93Z" fill="#c00a27"></path><rect x="27" y="58" width="2" height="2" fill="#c00a27"></rect></g></g></svg>