<svg xmlns="http://www.w3.org/2000/svg" xmlns:xlink="http://www.w3.org/1999/xlink" xmlns:svgjs="http://svgjs.com/svgjs" version="1.1" width="512" height="512" x="0" y="0" viewBox="0 0 16.933333 16.933334" style="enable-background:new 0 0 512 512" xml:space="preserve" class=""><g><g xmlns="http://www.w3.org/2000/svg" id="layer1" transform="translate(0 -280.067)"><path id="path13395" d="m4.4979137 280.59582c-.1455155.00029-.2634853.11803-.2640674.26355v1.85363h-1.3239485c-.00844-.0004-.01688-.0004-.025321 0-.1355487.0133-.23885.12735-.2387442.26355v2.38125h-.5291664c-.1593003.00056-.2820008.14071-.2614824.29869l1.3224009 10.05262c.046797.3938.3542453.76171.7906464.76171h8.9963499c.4353 0 .742529-.36708.790649-.75965l1.324467-10.05468c.02061-.1588-.103418-.29938-.263549-.29869h-.528651v-2.38073c-.000015-.14612-.118464-.26457-.264583-.26459h-1.322917v-1.85208c-.000015-.14612-.118464-.26457-.264583-.26458h-1.5875c-.146119.00001-.264567.11846-.264583.26458v.79375h-1.3229172c-.1461188.00001-.2645675.11846-.2645834.26458v.79375h-1.0588493v-.79426c-.0005291-.14532-.118237-.26297-.2635514-.26355h-1.3244672v-.7953c-.000582-.14532-.118237-.26297-.2635488-.26355zm6.6145833.52916h1.058334v4.47673c-.01053.0579-.142552.74453-.645957 1.45521-.116654.16469-.255227.32767-.412377.48369v-1.91771c.0021-.14916-.11956-.27053-.268716-.2682-.145923.002-.262448.12227-.26045.2682v2.34766c-.294257.18938-.6434932.34511-1.0583339.44442v-6.23166h1.0583339v1.05833c-.0054.35811.53454.35811.529166 0zm-6.3489654.00052h1.0583333v6.41718c-.157943-.15657-.2968175-.32043-.41393-.48576-.5055421-.71371-.6350503-1.4047-.6444033-1.45727zm1.5854309 1.05833h1.058852v6.23115c-.4150149-.0994-.7645162-.25493-1.058852-.44442zm1.5880186 1.05782h1.0588493v5.26324c-.1676823.0179-.3427889.0284-.5291667.0284-.1863777 0-.3620002-.0105-.5296826-.0284zm4.7630159 0h1.058334v2.11615h-1.058334zm-9.524484.001h1.0583333v2.11512h-1.0583333zm7.407818 1.0573v.26459c-.0054.3581.53454.3581.529166 0v-.26459c.0021-.14916-.11956-.27052-.268716-.2682-.145923.002-.262448.12228-.26045.2682zm-8.1659102 1.58699h1.8686199c.036499.17992.1687195.74064.6898798 1.47639.5990194.84567 1.6895446 1.69964 3.4907432 1.69964 1.8011993 0 2.8912163-.85397 3.4902273-1.69964.52119-.7358.654728-1.29653.691177-1.47639h1.867323l-1.283126 9.75599c-.000794.001-.0013.002-.0021.004-.02245.18851-.115638.29507-.265567.29507h-8.9963669c-.1499209 0-.2432182-.10668-.2656179-.29507.000008-.001.000008-.002 0-.004zm6.0492429 4.49895c-1.1658811 0-2.1177012.94924-2.1177012 2.11511 0 1.16588.9518201 2.11719 2.1177012 2.11719 1.1658706 0 2.1166673-.95131 2.1166673-2.11719 0-1.16587-.9507967-2.11511-2.1166673-2.11511zm0 .52916c.8798905 0 1.5875003.70606 1.5875003 1.58595s-.7076098 1.58802-1.5875003 1.58802c-.8798904 0-1.5880159-.70813-1.5880159-1.58802s.7081255-1.58595 1.5880159-1.58595z" font-variant-ligatures="normal" font-variant-position="normal" font-variant-caps="normal" font-variant-numeric="normal" font-variant-alternates="normal" font-feature-settings="normal" text-indent="0" text-align="start" text-decoration-line="none" text-decoration-style="solid" text-decoration-color="rgb(0,0,0)" text-transform="none" text-orientation="mixed" white-space="normal" shape-padding="0" isolation="auto" mix-blend-mode="normal" solid-color="rgb(0,0,0)" solid-opacity="1" vector-effect="none" fill="#ffffff"/></g></g></svg>