<svg xmlns="http://www.w3.org/2000/svg" xmlns:xlink="http://www.w3.org/1999/xlink" xmlns:svgjs="http://svgjs.com/svgjs" version="1.1" width="512" height="512" x="0" y="0" viewBox="0 0 488 488" style="enable-background:new 0 0 512 512" xml:space="preserve" class=""><g>
<g xmlns="http://www.w3.org/2000/svg">
	<g>
		<path d="M441.703,252.407c-4.17-0.938-8.341,1.567-9.471,5.689l-2.304,9.224c-14.248,56.952-51.608,106.6-97.512,129.552    c-3.937,2.006-5.502,6.823-3.496,10.76c1.358,2.665,4.089,4.35,7.08,4.368c1.235,0.012,2.456-0.261,3.568-0.8    c49.96-24.992,90.536-78.632,105.88-140l2.304-9.232C448.722,257.658,446.014,253.377,441.703,252.407z" fill="#ffffff"/>
	</g>
</g>
<g xmlns="http://www.w3.org/2000/svg">
	<g>
		<path d="M67.2,132.52c-4.074-9.301-4.25-19.848-0.488-29.28l3.464-8.088c1.877-4,0.156-8.764-3.844-10.641    c-4-1.877-8.764-0.156-10.641,3.844c-0.076,0.162-0.146,0.326-0.211,0.492L52,96.936c-5.627,13.682-5.338,29.083,0.8,42.544    c4.074,9.302,4.25,19.848,0.488,29.28l-3.464,8.088c-1.74,4.06,0.14,8.763,4.2,10.504c0.992,0.431,2.063,0.652,3.144,0.648    c3.2,0,6.091-1.907,7.352-4.848l3.48-8.088C73.627,161.382,73.338,145.981,67.2,132.52z" fill="#ffffff"/>
	</g>
</g>
<g xmlns="http://www.w3.org/2000/svg">
	<g>
		<path d="M131.192,132.52c-4.074-9.301-4.25-19.848-0.488-29.28l3.472-8.088c1.877-4,0.156-8.764-3.844-10.641    c-4-1.877-8.764-0.156-10.641,3.844c-0.076,0.162-0.146,0.326-0.211,0.492L116,96.936c-5.627,13.682-5.338,29.083,0.8,42.544    c4.074,9.302,4.25,19.848,0.488,29.28l-3.464,8.088c-1.74,4.06,0.14,8.763,4.2,10.504c0.992,0.431,2.063,0.652,3.144,0.648    c3.2,0,6.091-1.907,7.352-4.848l3.472-8.088C137.619,161.382,137.33,145.981,131.192,132.52z" fill="#ffffff"/>
	</g>
</g>
<g xmlns="http://www.w3.org/2000/svg">
	<g>
		<path d="M363.192,132.52c-4.074-9.301-4.25-19.848-0.488-29.28l3.464-8.088c1.877-4,0.155-8.764-3.844-10.641    s-8.764-0.156-10.641,3.844c-0.076,0.162-0.146,0.326-0.211,0.492L348,96.936c-5.627,13.682-5.338,29.083,0.8,42.544    c4.074,9.302,4.25,19.848,0.488,29.28l-3.464,8.088c-1.74,4.06,0.14,8.763,4.2,10.504c0.992,0.431,2.063,0.652,3.144,0.648    c3.2,0,6.091-1.907,7.352-4.848l3.472-8.088C369.619,161.382,369.33,145.981,363.192,132.52z" fill="#ffffff"/>
	</g>
</g>
<g xmlns="http://www.w3.org/2000/svg">
	<g>
		<path d="M427.192,132.52c-4.074-9.301-4.25-19.848-0.488-29.28l3.464-8.088c1.877-4,0.155-8.764-3.844-10.641    s-8.764-0.156-10.641,3.844c-0.076,0.162-0.146,0.326-0.211,0.492L412,96.936c-5.627,13.682-5.338,29.083,0.8,42.544    c4.074,9.302,4.25,19.848,0.488,29.28l-3.464,8.088c-1.74,4.06,0.14,8.763,4.2,10.504c0.992,0.431,2.063,0.652,3.144,0.648    c3.2,0,6.091-1.907,7.352-4.848l3.472-8.088C433.619,161.382,433.33,145.981,427.192,132.52z" fill="#ffffff"/>
	</g>
</g>
<g xmlns="http://www.w3.org/2000/svg">
	<g>
		<path d="M480,36H320v-8h160c4.418,0,8-3.582,8-8s-3.582-8-8-8H313.76c-8.661-9.799-23.626-10.722-33.425-2.062    c-0.113,0.1-0.224,0.2-0.335,0.302c-9.044-8.32-22.956-8.32-32,0c-9.044-8.32-22.956-8.32-32,0    c-9.633-8.846-24.612-8.208-33.458,1.425c-0.102,0.111-0.202,0.222-0.302,0.335H136c-4.418,0-8,3.582-8,8v24c0,4.418,3.582,8,8,8    h40v168H8c-4.418,0-8,3.582-8,8c0,101.664,52,185.952,136,221.384V476c0,4.418,3.582,8,8,8h192c4.418,0,8-3.582,8-8v-26.616    C428.04,413.952,480,329.664,480,228c0-4.418-3.582-8-8-8H320V52h160c4.418,0,8-3.582,8-8S484.418,36,480,36z M288,28    c0-4.418,3.582-8,8-8s8,3.582,8,8v192h-16V28z M256,28c0-4.418,3.582-8,8-8s8,3.582,8,8v192h-16V28z M224,28c0-4.418,3.582-8,8-8    s8,3.582,8,8v192h-16V28z M192,28c0-4.418,3.582-8,8-8s8,3.582,8,8v192h-16V28z M144,36v-8h32v8H144z M463.88,236    c-2.68,93.344-52.28,169.76-130.8,200.552c-3.064,1.201-5.08,4.157-5.08,7.448v24H152v-24c0-3.291-2.016-6.247-5.08-7.448    C68.4,405.76,18.8,329.344,16.12,236H463.88z" fill="#ffffff"/>
	</g>
</g>
<g xmlns="http://www.w3.org/2000/svg">
</g>
<g xmlns="http://www.w3.org/2000/svg">
</g>
<g xmlns="http://www.w3.org/2000/svg">
</g>
<g xmlns="http://www.w3.org/2000/svg">
</g>
<g xmlns="http://www.w3.org/2000/svg">
</g>
<g xmlns="http://www.w3.org/2000/svg">
</g>
<g xmlns="http://www.w3.org/2000/svg">
</g>
<g xmlns="http://www.w3.org/2000/svg">
</g>
<g xmlns="http://www.w3.org/2000/svg">
</g>
<g xmlns="http://www.w3.org/2000/svg">
</g>
<g xmlns="http://www.w3.org/2000/svg">
</g>
<g xmlns="http://www.w3.org/2000/svg">
</g>
<g xmlns="http://www.w3.org/2000/svg">
</g>
<g xmlns="http://www.w3.org/2000/svg">
</g>
<g xmlns="http://www.w3.org/2000/svg">
</g>
</g></svg>