<svg xmlns="http://www.w3.org/2000/svg" xmlns:xlink="http://www.w3.org/1999/xlink" xmlns:svgjs="http://svgjs.com/svgjs" version="1.1" width="512" height="512" x="0" y="0" viewBox="0 0 512 512" style="enable-background:new 0 0 512 512" xml:space="preserve" class=""><g><g xmlns="http://www.w3.org/2000/svg"><path d="m229.219 158.284c6.177 0 11.801-2.399 16-6.31 4.199 3.911 9.823 6.31 16 6.31 12.958 0 23.5-10.542 23.5-23.5v-9.811h16.188c6.745 0 13.26-2.822 17.872-7.742l45.286-48.298c.471-.501 1.135-.789 1.823-.789h132.612c7.444 0 13.5-6.056 13.5-13.5v-22.666c0-7.444-6.056-13.5-13.5-13.5h-133.629c-7.078 0-13.803 2.684-18.934 7.557l-51.958 49.329c-2.336 2.218-4.439 2.666-9.261 2.685v-5.904c0-12.958-10.542-23.5-23.5-23.5-6.177 0-11.801 2.399-16 6.31-4.199-3.911-9.823-6.31-16-6.31s-11.801 2.399-16 6.31c-4.199-3.911-9.823-6.31-16-6.31s-11.801 2.399-16 6.31c-4.199-3.911-9.823-6.31-16-6.31-12.958 0-23.5 10.542-23.5 23.5v119.153c-5.119 8.317-6.776 18.212-4.711 27.72-11.561 8.807-21.986 19.007-31.026 30.394-2.575 3.244-2.033 7.962 1.211 10.537s7.962 2.033 10.537-1.211c7.527-9.482 16.099-18.069 25.554-25.609 7.385 10.282 19.031 15.594 30.575 15.594 20.888 0 37.743-17.033 37.743-37.805 0-3.095-.398-6.188-1.17-9.197 18.207-3.675 29.317-3.229 47.791-3.229 70.089 0 108.518 43.781 111.858 45.625 26.7 26.338 42.854 60.981 46.401 98.022.522 5.558-2.215 10.948-7.248 13.683-.077.042-.151.088-.229.129-6.655 3.458-13.824 1.063-18.803-4.616-.044-.051-.089-.103-.132-.155-2.756-3.207-4.662-7.643-4.867-12.228l-.404-9.062c-.578-12.925-12.34-22.167-24.86-20.006-8.018 1.344-14.457 7.11-16.746 14.796-1.535 5.062-.233 6.387-1.989 10.318-.055.101-.123.193-.174.298-1.924 3.964-5.706 6.602-10.098 6.987-4.627.401-8.956-1.612-11.57-5.318-1.447-2.053-2.305-4.55-2.305-7.247v-20.117c0-9.797-3.605-17.559-9.79-23.387-1.156-1.089-2.391-2.082-3.687-2.974 7.49-6.897 12.192-16.777 12.192-27.737 0-20.797-16.919-37.716-37.716-37.716s-37.716 16.919-37.716 37.716c0 14.943 8.736 27.884 21.368 33.985-4.04 5.06-6.491 11.294-6.897 17.95-.006.091-.016.181-.02.272-.065 1.229-.047-.25-.047 23.508 0 15.296.218 15.884-.735 18.54-.007.019-.014.038-.021.057-1.942 5.332-7.099 8.577-12.368 8.381-6.721-.239-12.188-6.129-12.188-13.13v-9.654-41.736c0-9.894-8.05-17.943-17.943-17.943-6.332 0-55.175 0-62.566 0-10.595 0-19.663 7.208-22.055 17.53l-3.16 13.644c-1.399 6.018-6.31 10.058-12.183 10.317-4.795.207-8.68.083-11.519-3.518-1.321-1.64-2.116-3.726-2.116-5.997v-.384c-.001-7.091 1.143-14.148 3.398-20.973 1.3-3.933-.835-8.175-4.768-9.475-3.934-1.299-8.174.834-9.475 4.768-2.759 8.347-4.157 16.988-4.156 25.681v.383c0 2.19.292 4.313.831 6.335-29.519 15.217-51.552 42.245-60.418 74.188-12.994.875-23.301 11.72-23.301 24.934 0 12.755 9.604 23.302 21.959 24.808l3.236 26.161c2.072 16.753 16.365 29.387 33.247 29.387h329.551c4.143 0 7.5-3.358 7.5-7.5s-3.357-7.5-7.5-7.5h-329.551c-9.322 0-17.216-6.977-18.36-16.229l-2.984-24.128h437.584l-2.984 24.128c-1.145 9.252-9.038 16.229-18.36 16.229h-30.344c-4.143 0-7.5 3.358-7.5 7.5s3.357 7.5 7.5 7.5h30.344c16.882 0 31.175-12.634 33.247-29.387l3.233-26.133c12.462-1.403 22.182-12.003 22.182-24.836 0-12.883-9.796-23.519-22.331-24.856-4.162-19.927-12.494-39.064-24.315-55.68-12.281-17.262-28.384-31.92-46.681-42.548-8.313-19.782-20.29-37.968-35.449-53.614 2.727-5.289 4.153-11.135 4.153-17.211 0-20.796-16.919-37.716-37.716-37.716-11.238 0-21.812 5.071-28.912 13.542-19.754-7.604-40.908-11.592-62.527-11.592-12.565 0-24-.321-37.504 1.321v-28.125c2.639 1.027 5.504 1.597 8.501 1.597zm-18.482 132.446h.752c1.623 0 2.943 1.32 2.943 2.943v26.714c-7.288-4.784-15.058-8.738-23.162-11.811 5.233-7.181 11.837-13.247 19.467-17.846zm106.724 97.436c4.222-5.512 10.865-9.012 18.127-9.012 3.57 0 14.165-.96 21.802 9.012zm-57.033-10.756c-.384-1-1.892-4.785-3.56-8.303-.025-.052-.046-.105-.071-.157 6.796-4.286 11.6-11.445 12.7-19.76.003-.025.009-.05.013-.076.005-.034.006-.068.01-.102.285-2.27.225-2.696.225-14.065 9.767-7.118 20.759-12.498 32.313-15.836 0 11.683-.221 13.381.899 17.599-18.985 7.704-34.121 22.308-42.529 40.7zm14.71-80.285c3.539-1.619 7.167-3.092 10.814-4.388 6.999 0 13.09 4.625 15.257 11.059-11.033 2.841-21.662 7.307-31.465 13.188v-7.564c0-4.487 1.834-8.956 5.394-12.295zm143.289 91.041c-1.741-5.895-4.172-11.592-7.23-16.951 7.051-2.23 12.978-7.007 16.591-13.362.032-.057.064-.113.095-.17 6.782 9.264 11.966 19.555 15.344 30.483zm-61.148-57.508c.104-3.637 3.369-6.529 7.081-6.037 3.023.395 5.316 2.893 5.453 5.938l.243 5.446c-4.181-1.583-8.493-2.817-12.88-3.68.049-.552.087-1.106.103-1.667zm-27.459 26.677c8.659 0 16.674-3.956 21.86-10.756 7.956 1.227 15.676 3.949 22.638 7.993 4.223 7.906 11.233 13.771 18.715 16.387 4.063 5.229 7.305 11.052 9.6 17.206h-28.177c-5.602-14.216-19.539-24.012-35.193-24.012h-3.676c-15.654 0-29.59 9.796-35.192 24.012h-28.199c6.548-17.752 20.562-31.805 38.518-38.378 5.041 4.764 11.863 7.547 18.961 7.547h.145zm-51.764-124.55c12.525 0 22.716 10.19 22.716 22.716 0 12.525-10.19 22.716-22.716 22.716s-22.716-10.19-22.716-22.716c0-12.525 10.19-22.716 22.716-22.716zm-129.133 57.945h37.837c-3.937 4.028-7.46 8.466-10.51 13.255-8.878-2.086-18.022-3.168-27.265-3.168h-8.47l.966-4.172c.807-3.482 3.867-5.915 7.442-5.915zm-57.094 36.011c9.045 7.564 22.869 6.082 29.297 3.583.016-.006.031-.013.046-.019 6.727-2.63 12.23-7.789 15.269-14.466 1.257-.028.907-.021 12.545-.021 23.837 0 46.944 8.181 65.447 23.103 0 6.646-.509 12.073 3.222 19.2 4.718 9.01 13.997 15.107 24.506 15.081 2.48 4.906 4.499 9.855 6.145 14.965h-15.922c-12.821-33.194-44.968-57.348-83.397-57.348h-10.684c-19.381 0-37.831 6.127-53.354 17.718-13.497 10.078-24.008 24.005-30.043 39.63h-15.94c8.574-26.583 27.698-48.879 52.863-61.426zm98.697 61.425c-7.719-17.352-24.846-28.667-44.212-28.667h-5.342c-19.366 0-36.493 11.314-44.211 28.667h-25.566c12.195-25.696 38.001-42.348 67.106-42.348h10.684c29.105 0 54.911 16.652 67.106 42.348zm-17.239 0h-59.286c6.16-8.445 16.047-13.667 26.972-13.667h5.342c10.923.001 20.811 5.222 26.972 13.667zm323.713 25c0 5.514-4.486 10-10 10-3.059 0-452.657 0-462 0-5.514 0-10-4.486-10-10s4.486-10 10-10h462c5.514 0 10 4.486 10 10zm-22.698-25h-15.489c-4.965-18.617-14.438-35.764-27.668-50.031-.934-8.453-2.542-16.96-4.551-24.669 23.972 18.704 40.774 44.878 47.708 74.7zm-138.832-186.627c17.085-13.669 42.079 2.544 36.061 23.902-10.689-9.192-23.135-17.493-36.061-23.902zm-31.162-115.298 51.959-49.33c2.331-2.214 5.388-3.434 8.604-3.434h132.129v19.667h-131.111c-4.819 0-9.473 2.016-12.766 5.53l-45.286 48.297c-3.626 3.868-6.577 3.002-23.118 3.002v-16.923c6.804-.028 13.302-.842 19.589-6.809zm-43.089-22.597c4.687 0 8.5 3.813 8.5 8.5v13.329 32 17.311c0 4.687-3.813 8.5-8.5 8.5s-8.5-3.813-8.5-8.5v-62.64c0-4.687 3.813-8.5 8.5-8.5zm-32 0c4.687 0 8.5 3.813 8.5 8.5v62.64c0 4.687-3.813 8.5-8.5 8.5s-8.5-3.813-8.5-8.5v-62.64c0-4.687 3.813-8.5 8.5-8.5zm-32.644 147.362c0 11.544-9.083 22.039-21.525 22.684-13.209.64-23.906-9.843-23.906-22.684 0-11.653 8.877-21.416 20.381-22.596.015-.002.031-.003.046-.004 13.46-1.353 25.004 9.278 25.004 22.6zm-39.856-138.862c0-4.687 3.813-8.5 8.5-8.5s8.5 3.813 8.5 8.5v101.127c-5.962.007-11.775 1.427-17 4.101zm46.89 115.684c-3.698-4.735-8.71-8.74-14.528-11.317-.122-.054-.239-.117-.362-.169v-104.198c0-4.687 3.813-8.5 8.5-8.5s8.5 3.813 8.5 8.5v115.204c-.693.15-1.405.318-2.11.48z" fill="#ffffff"/></g></g></svg>