<svg xmlns="http://www.w3.org/2000/svg" version="1.1" xmlns:xlink="http://www.w3.org/1999/xlink" xmlns:svgjs="http://svgjs.com/svgjs" width="512" height="512" x="0" y="0" viewBox="0 0 512 512" style="enable-background:new 0 0 512 512" xml:space="preserve" class=""><g><g xmlns="http://www.w3.org/2000/svg"><g id="Page-1_23_"><g id="web_export_23_" transform="translate(-536 -424)"><path id="payment_x2C_-wireless_x2C_-touch_x2C_-done_x2C_-complete_x2C_-buy" d="m581.176 582.118h180.706c24.95 0 45.177 20.226 45.177 45.176v105.412c0 24.95-20.226 45.176-45.177 45.176h-180.706c-24.95 0-45.176-20.226-45.176-45.176v-105.412c0-24.95 20.226-45.176 45.176-45.176zm195.765 67.764v-22.588c0-8.317-6.742-15.059-15.059-15.059h-180.706c-8.317 0-15.059 6.742-15.059 15.059v22.588zm0 30.118h-210.823v52.706c0 8.317 6.742 15.059 15.059 15.059h180.706c8.317 0 15.059-6.742 15.059-15.059v-52.706zm-75.294-135.529c0 8.317-6.742 15.059-15.059 15.059s-15.059-6.742-15.059-15.059c0-33.267 26.968-60.235 60.235-60.235h256c33.267 0 60.235 26.968 60.235 60.235v271.059c0 33.267-26.968 60.235-60.235 60.235h-256c-33.267 0-60.235-26.968-60.235-60.235 0-8.317 6.742-15.059 15.059-15.059s15.059 6.742 15.059 15.059c0 16.633 13.484 30.118 30.118 30.118h256c16.634 0 30.118-13.484 30.118-30.118v-271.059c0-16.633-13.484-30.118-30.118-30.118h-256c-16.634 0-30.118 13.484-30.118 30.118zm245.352 94.763c5.88-5.881 15.415-5.881 21.296 0s5.881 15.416 0 21.296l-60.235 60.235c-5.881 5.881-15.415 5.881-21.296 0l-30.118-30.118c-5.881-5.881-5.881-15.416 0-21.296 5.881-5.881 15.415-5.881 21.296 0l19.47 19.469z" fill="#fb7223"></path></g></g></g></g></svg>