<svg xmlns="http://www.w3.org/2000/svg" version="1.1" xmlns:xlink="http://www.w3.org/1999/xlink" xmlns:svgjs="http://svgjs.com/svgjs" width="512" height="512" x="0" y="0" viewBox="0 0 512.001 512.001" style="enable-background:new 0 0 512 512" xml:space="preserve" class=""><g>
<g xmlns="http://www.w3.org/2000/svg">
	<g>
		<path d="M284.187,401.559c0-12.331-8.124-22.799-19.3-26.336c-3.216-45.543-41.299-81.615-87.647-81.615h-44.23l-6.947-100.42    h253.24l-15.78-50.21h-17.12l-11.046-34.143H256.07V56.068l42.791-9.985c10.281-2.399,17.461-11.447,17.461-22.004v-0.993    c0-6.983-3.15-13.46-8.642-17.772c-5.493-4.311-12.534-5.833-19.316-4.176l-77.483,18.94v88.759h-79.287l-11.046,34.143h-17.12    l-15.78,50.21h23.316l6.947,100.42h-10.965c-46.349,0-84.43,36.072-87.647,81.615C8.124,378.76,0,389.229,0,401.559    c0,7.905,3.339,15.045,8.681,20.084C3.339,426.682,0,433.822,0,441.727c0,12.396,8.21,22.911,19.478,26.391    c3.109,24.442,24.037,43.4,49.309,43.4H215.4c25.273,0,46.2-18.958,49.309-43.4c11.268-3.481,19.478-13.995,19.478-26.391    c0-7.905-3.339-15.045-8.681-20.084C280.848,416.604,284.187,409.464,284.187,401.559z M225.944,31.903l65.995-16.132    c2.261-0.553,4.608-0.045,6.439,1.392c1.831,1.437,2.881,3.597,2.881,5.924v0.993c0,3.519-2.394,6.534-5.82,7.335l-54.431,12.7    v64.722h-15.063V31.903z M142.552,123.899h181.848l6.172,19.08H136.38L142.552,123.899z M108.171,178.126l6.312-20.084h237.984    l6.312,20.084H108.171z M106.947,308.671h70.294c37.601,0,68.637,28.655,72.418,65.273H34.529    C38.31,337.326,69.346,308.671,106.947,308.671z M27.615,454.279c-6.922,0-12.552-5.631-12.552-12.552    c0-6.922,5.631-12.552,12.552-12.552h8.351l35.515,25.105H27.615z M130.05,450.037l-19.237,13.598l-48.751-34.46h38.475    L130.05,450.037z M126.632,429.175h97.502l-48.752,34.46L126.632,429.175z M215.4,496.456H68.787    c-16.517,0-30.372-11.62-33.82-27.113h57.825l18.021,12.738l32.285-22.821l32.286,22.821l18.021-12.738h55.816    C245.772,484.836,231.917,496.456,215.4,496.456z M256.572,454.279h-41.858l35.516-25.105h6.341    c6.922,0,12.552,5.631,12.552,12.552C269.124,448.649,263.494,454.279,256.572,454.279z M256.572,414.112H27.615    c-6.922,0-12.552-5.63-12.552-12.552s5.631-12.552,12.552-12.552h228.957c6.922,0,12.552,5.63,12.552,12.552    S263.494,414.112,256.572,414.112z" fill="#c00a27"></path>
	</g>
</g>
<g xmlns="http://www.w3.org/2000/svg">
	<g>
		<path d="M501.093,293.608v-96.403h-45.189v33.138h-45.189v-22.092h-45.189v22.092h-14.561v-22.092h-45.189v85.357h-17.936    l23.733,217.91h176.693l23.733-217.91H501.093z M470.968,212.268h15.063v81.34h-15.063V212.268z M440.842,245.407h15.063v76.844    l-11.326,31.609h-3.737V245.407z M410.716,245.407h15.063V353.86h-15.063V245.407z M380.59,223.314h15.063V353.86H380.59V223.314z     M350.966,245.407h14.561V353.86h-10.264l-4.297-11.992V245.407z M320.84,223.314h15.063v76.517l-2.23-6.223H320.84V223.314z     M474.755,496.456H325.086l-20.451-187.784h18.436l21.59,60.252h110.521l21.59-60.252h18.436L474.755,496.456z" fill="#c00a27"></path>
	</g>
</g>
<g xmlns="http://www.w3.org/2000/svg">
	<g>
		<path d="M327.988,383.986l10.609,97.407h122.647l10.608-97.407H327.988z M447.733,466.33h-95.625l-7.328-67.281h110.28    L447.733,466.33z" fill="#c00a27"></path>
	</g>
</g>
<g xmlns="http://www.w3.org/2000/svg">
	<g>
		<rect x="88.871" y="324.737" width="15.063" height="15.063" fill="#c00a27"></rect>
	</g>
</g>
<g xmlns="http://www.w3.org/2000/svg">
	<g>
		<rect x="119.329" y="333.775" width="15.063" height="15.063" fill="#c00a27"></rect>
	</g>
</g>
<g xmlns="http://www.w3.org/2000/svg">
	<g>
		<rect x="149.796" y="333.775" width="15.063" height="15.063" fill="#c00a27"></rect>
	</g>
</g>
<g xmlns="http://www.w3.org/2000/svg">
	<g>
		<rect x="180.253" y="324.737" width="15.063" height="15.063" fill="#c00a27"></rect>
	</g>
</g>
<g xmlns="http://www.w3.org/2000/svg">
	<g>
		<rect x="150.278" y="208.251" width="79.331" height="15.063" fill="#c00a27"></rect>
	</g>
</g>
<g xmlns="http://www.w3.org/2000/svg">
	<g>
		<rect x="244.672" y="208.251" width="19.936" height="15.063" fill="#c00a27"></rect>
	</g>
</g>
<g xmlns="http://www.w3.org/2000/svg">
	<g>
		<rect x="392.891" y="425.157" width="15.063" height="15.063" fill="#c00a27"></rect>
	</g>
</g>
<g xmlns="http://www.w3.org/2000/svg">
	<g>
		<rect x="423.017" y="425.157" width="14.059" height="15.063" fill="#c00a27"></rect>
	</g>
</g>
<g xmlns="http://www.w3.org/2000/svg">
	<g>
		<rect x="362.766" y="425.157" width="15.063" height="15.063" fill="#c00a27"></rect>
	</g>
</g>
<g xmlns="http://www.w3.org/2000/svg">
</g>
<g xmlns="http://www.w3.org/2000/svg">
</g>
<g xmlns="http://www.w3.org/2000/svg">
</g>
<g xmlns="http://www.w3.org/2000/svg">
</g>
<g xmlns="http://www.w3.org/2000/svg">
</g>
<g xmlns="http://www.w3.org/2000/svg">
</g>
<g xmlns="http://www.w3.org/2000/svg">
</g>
<g xmlns="http://www.w3.org/2000/svg">
</g>
<g xmlns="http://www.w3.org/2000/svg">
</g>
<g xmlns="http://www.w3.org/2000/svg">
</g>
<g xmlns="http://www.w3.org/2000/svg">
</g>
<g xmlns="http://www.w3.org/2000/svg">
</g>
<g xmlns="http://www.w3.org/2000/svg">
</g>
<g xmlns="http://www.w3.org/2000/svg">
</g>
<g xmlns="http://www.w3.org/2000/svg">
</g>
</g></svg>