<svg xmlns="http://www.w3.org/2000/svg" xmlns:xlink="http://www.w3.org/1999/xlink" xmlns:svgjs="http://svgjs.com/svgjs" version="1.1" width="512" height="512" x="0" y="0" viewBox="0 0 511.905 511.905" style="enable-background:new 0 0 512 512" xml:space="preserve" class=""><g><g xmlns="http://www.w3.org/2000/svg"><path d="m504.098 152.079c-4.025-.982-8.081 1.486-9.062 5.511-2.146 8.809-7.994 15.911-15.817 19.827-3.98 1.994-5.362 7.002-2.954 10.756l.068.106c10.915 17.303 1.71 40.408-18.246 45.34-1.708-3.951-4.11-6.752-7.329-9.291 14.746-24.137 12.638-55.069-4.708-77.017l-11.082-33.247c11.84-7.822 19.394-20.848 20.148-35.202 8.385 7.942 11.77 20.203 7.793 31.751-1.56 4.529 1.477 9.35 6.242 9.894 7.729.882 14.72 4.63 19.684 10.556 2.664 3.18 7.396 3.588 10.565.933 3.175-2.66 3.593-7.39.933-10.565-5.628-6.719-12.987-11.571-21.242-14.108 3.005-20.291-8.19-40.309-27.382-48.235-8.05-19.417-28.178-30.298-48.188-27.334-10.782-35.095-57.568-43.34-79.525-13.367-27.48-11.632-59.361 6.481-62.415 37.124-3.433 1.472-6.5 3.767-8.925 6.767l-41.89 51.842c-2.603 3.222-2.102 7.944 1.12 10.547 3.221 2.604 7.943 2.102 10.548-1.12l41.89-51.842c3.321-4.112 9.59-4.092 12.82-.023 24.233 30.508 37.445 70.288 37.558 112.653-25.913 1.639-50.617 7.498-73.263 16.77-5.477-15.669-25.467-20.134-37.126-8.475-7.979 7.981-8.674 20.502-2.134 29.302-11.705 7.801-22.633 16.701-32.586 26.627-28.202 24.307-50.27 51.184-65.589 79.889-1.951 3.654-.569 8.198 3.085 10.148 3.656 1.95 8.198.569 10.147-3.085 14.481-27.134 35.46-52.625 62.353-75.764.142-.122.279-.25.412-.382 69.184-69.186 187.444-82.086 261.931-22.899 4.076 3.237 4.083 9.495-.014 12.814l-243.77 197.511c-9.775-19.518-35.789-23.57-51.084-8.275-13.342 13.343-12.367 35.493 2.685 47.491l-10.661 8.638c-5.057 3.758-12.301 2.752-16.199-2.265-27.207-35.029-33.984-79.613-19.082-125.539 1.278-3.94-.879-8.17-4.819-9.449-3.937-1.278-8.171.879-9.448 4.819-5.951 18.339-8.741 36.506-8.47 54.076-21.649-3.059-41.613-11.527-59.439-25.262-5.185-3.996-6.068-11.462-1.953-16.555l182.097-225.36c2.603-3.222 2.102-7.944-1.12-10.547-3.222-2.604-7.944-2.103-10.548 1.12l-182.098 225.36c-9.276 11.48-7.461 28.253 4.003 37.489l99.421 99.521c9.457 11.617 26.473 12.829 36.992 4.332 0 0 291.786-236.423 302.934-245.456 3.924-3.18 6.64-7.459 7.873-12.22 28.311-5.33 44.286-35.538 33.214-61.855 8.579-6.275 14.626-15.298 17.164-25.713.98-4.024-1.488-8.081-5.512-9.062zm-289.18 61.756c-2.924-2.923-2.923-7.679 0-10.603 4.293-4.296 11.707-1.946 12.691 4.08-4.259 2.087-8.445 4.303-12.551 6.649-.045-.044-.095-.082-.14-.126zm-45.298 230.346c7.809 0 14.382 5.278 16.32 12.501l-24 19.446c-15.919-8.138-9.754-31.947 7.68-31.947zm-82.089 12.722-30.701-30.732c8.166 2.552 16.59 4.35 25.253 5.379 1.04 8.654 2.864 17.121 5.448 25.353zm336.961-249.794c14.939-26.197-7.137-58.576-37.244-53.575-.398-1.895-.953-3.745-1.653-5.536 1.795-2.015 3.651-8.613 4.296-11.186 42.092-2.595 69.482 42.856 48.657 78.705-4.554-3.008-9.24-5.817-14.056-8.408zm-49.79-18.336c1.423-1.763 9.498-7.544 12.37-19.818 18.852-5.661 34.263 15.263 23.873 31.566-11.536-5.049-23.667-8.977-36.243-11.748zm-45.004-4.895c-.042-9.083-.644-18.058-1.792-26.872 8.004-6.774 12.449-16.429 24.828-16.429 18.204 0 26.954 21.997 14.337 34.613l-10.433 10.434c-8.823-1.136-17.82-1.716-26.94-1.746zm-31.635-108.835c40.044-23.317 88.926 13.457 77.148 58.622-4.418-3.666-9.598-6.157-15.157-7.325 4.965-29.891-27.182-52.378-53.62-37.219-2.587-4.83-5.378-9.529-8.371-14.078zm126.169 54.253c-9.895-5.142-20.979-7.787-32.324-7.578.209-10.913-2.245-21.73-7.156-31.511l29.757 9.919zm-79.599-2.78c-12.303 2.879-18.074 10.972-19.882 12.433-2.783-12.588-6.72-24.736-11.746-36.269 16.394-10.525 37.275 5.035 31.628 23.836zm-67.772-72.083c3.889-20.892 27.698-31.281 45.751-19.892 3.744 2.448 8.797 1.091 10.808-2.913 13.448-26.822 53.544-19.524 56.913 10.062.545 4.777 5.377 7.8 9.894 6.242 30.866-10.624 54.545 29.313 29.737 51.121-2.123-4.851-1.825-10.194-7.152-11.97-13.413-4.469-54.374-18.134-55.015-18.326-22.113-18.588-53.79-21.068-78.537-5.928-.125-.159-.246-.322-.372-.48-3.11-3.915-7.321-6.645-12.027-7.916z" fill="#ffffff"/><path d="m262.763 137.539c3.93 0 7.5-3.148 7.5-7.5 0-4.635-4.238-8.287-8.97-7.36-3.654.761-6.03 3.892-6.03 7.36 0 4.162 3.39 7.5 7.5 7.5z" fill="#ffffff"/><path d="m61.413 357.229c-3.335.624-6.03 3.648-6.03 7.35 0 4.139 3.375 7.5 7.5 7.5 3.598 0 7.5-2.866 7.5-7.5 0-4.761-4.397-8.294-8.97-7.35z" fill="#ffffff"/><path d="m367.531 285.21c8.771-8.771 8.771-23.043 0-31.815-8.771-8.771-23.045-8.771-31.816 0-8.771 8.772-8.771 23.044 0 31.815 8.77 8.771 23.044 8.772 31.816 0zm-21.209-21.209c2.922-2.923 7.68-2.923 10.602 0 2.923 2.923 2.924 7.68 0 10.603-2.922 2.923-7.68 2.923-10.602 0-2.924-2.923-2.923-7.68 0-10.603z" fill="#ffffff"/><path d="m245.675 287.084c-9.619-9.618-25.267-9.617-34.886 0-9.616 9.617-9.616 25.266 0 34.883 9.618 9.617 25.266 9.618 34.886 0 9.617-9.617 9.617-25.265 0-34.883zm-10.607 24.277c-3.768 3.768-9.901 3.771-13.671 0-3.769-3.77-3.769-9.902 0-13.671 3.766-3.768 9.903-3.77 13.671 0 3.769 3.77 3.769 9.902 0 13.671z" fill="#ffffff"/><circle cx="283.953" cy="245.739" r="7.5" fill="#ffffff"/><path d="m223.413 381.719c-3.618.754-6.04 3.849-6.04 7.35 0 4.568 4.098 8.258 8.97 7.36 3.612-.752 6.03-3.844 6.03-7.36 0-4.754-4.358-8.261-8.96-7.35z" fill="#ffffff"/><path d="m154.013 368.129c4.276 0 7.5-3.522 7.5-7.5 0-4.083-3.282-7.502-7.531-7.502-.48 0-.962.047-1.439.142-3.634.753-6.03 3.871-6.03 7.36 0 4.184 3.411 7.5 7.5 7.5z" fill="#ffffff"/></g></g></svg>